<!-- Generated by graphviz version 15.0.0 (20260523.1842)
 -->
<!-- Title: dkms_boundary Pages: 1 -->
<svg width="473pt" height="914pt"
 viewBox="0.00 0.00 473.00 914.00" xmlns="http://www.w3.org/2000/svg" xmlns:xlink="http://www.w3.org/1999/xlink">
<g id="graph0" class="graph" transform="scale(1 1) rotate(0) translate(18 896)">
<title>dkms_boundary</title>
<g id="clust1" class="cluster">
<title>cluster_build</title>
<path fill="#edf1df" stroke="#6f942e" stroke-width="1.5" d="M20,-442.4C20,-442.4 219,-442.4 219,-442.4 225,-442.4 231,-448.4 231,-454.4 231,-454.4 231,-858 231,-858 231,-864 225,-870 219,-870 219,-870 20,-870 20,-870 14,-870 8,-864 8,-858 8,-858 8,-454.4 8,-454.4 8,-448.4 14,-442.4 20,-442.4"/>
<text xml:space="preserve" text-anchor="middle" x="119.53" y="-855.2" font-family="Arial" font-size="12.00" fill="#17201a">DKMS BUILD + INSTALL BOUNDARY</text>
</g>
<g id="clust2" class="cluster">
<title>cluster_runtime</title>
<path fill="#ebe8dc" stroke="#aeb5aa" stroke-width="1.2" d="M37,-70.04C37,-70.04 356,-70.04 356,-70.04 362,-70.04 368,-76.04 368,-82.04 368,-82.04 368,-403.6 368,-403.6 368,-409.6 362,-415.6 356,-415.6 356,-415.6 37,-415.6 37,-415.6 31,-415.6 25,-409.6 25,-403.6 25,-403.6 25,-82.04 25,-82.04 25,-76.04 31,-70.04 37,-70.04"/>
<text xml:space="preserve" text-anchor="middle" x="196.51" y="-400.8" font-family="Arial" font-size="12.00" fill="#17201a">RUNNING KERNEL + DRIVER RUNTIME (OUTSIDE DKMS)</text>
</g>
<!-- source -->
<g id="node1" class="node">
<title>source</title>
<path fill="#f4f1e8" stroke="#aeb5aa" stroke-width="1.2" d="M200.71,-829.6C200.71,-829.6 87.29,-829.6 87.29,-829.6 81.29,-829.6 75.29,-823.6 75.29,-817.6 75.29,-817.6 75.29,-800.56 75.29,-800.56 75.29,-794.56 81.29,-788.56 87.29,-788.56 87.29,-788.56 200.71,-788.56 200.71,-788.56 206.71,-788.56 212.71,-794.56 212.71,-800.56 212.71,-800.56 212.71,-817.6 212.71,-817.6 212.71,-823.6 206.71,-829.6 200.71,-829.6"/>
<text xml:space="preserve" text-anchor="middle" x="144" y="-812.23" font-family="Arial" font-size="10.50" fill="#17201a">Driver source</text>
<text xml:space="preserve" text-anchor="middle" x="144" y="-799.63" font-family="Arial" font-size="10.50" fill="#17201a">/usr/src/nvidia&#45;&lt;version&gt;</text>
</g>
<!-- conftest -->
<g id="node2" class="node">
<title>conftest</title>
<path fill="#f4f1e8" stroke="#aeb5aa" stroke-width="1.2" d="M196.42,-747.56C196.42,-747.56 125.58,-747.56 125.58,-747.56 119.58,-747.56 113.58,-741.56 113.58,-735.56 113.58,-735.56 113.58,-718.52 113.58,-718.52 113.58,-712.52 119.58,-706.52 125.58,-706.52 125.58,-706.52 196.42,-706.52 196.42,-706.52 202.42,-706.52 208.42,-712.52 208.42,-718.52 208.42,-718.52 208.42,-735.56 208.42,-735.56 208.42,-741.56 202.42,-747.56 196.42,-747.56"/>
<text xml:space="preserve" text-anchor="middle" x="161" y="-730.19" font-family="Arial" font-size="10.50" fill="#17201a">API discovery</text>
<text xml:space="preserve" text-anchor="middle" x="161" y="-717.59" font-family="Arial" font-size="10.50" fill="#17201a">conftest probes</text>
</g>
<!-- source&#45;&gt;conftest -->
<g id="edge1" class="edge">
<title>source&#45;&gt;conftest</title>
<path fill="none" stroke="#5d675f" stroke-width="1.25" d="M161,-788.38C161,-788.38 161,-756.91 161,-756.91"/>
<polygon fill="#5d675f" stroke="#5d675f" stroke-width="1.25" points="163.45,-756.91 161,-749.91 158.55,-756.91 163.45,-756.91"/>
</g>
<!-- kbuild -->
<g id="node3" class="node">
<title>kbuild</title>
<path fill="#f4f1e8" stroke="#aeb5aa" stroke-width="1.2" d="M200.94,-665.52C200.94,-665.52 121.06,-665.52 121.06,-665.52 115.06,-665.52 109.06,-659.52 109.06,-653.52 109.06,-653.52 109.06,-636.48 109.06,-636.48 109.06,-630.48 115.06,-624.48 121.06,-624.48 121.06,-624.48 200.94,-624.48 200.94,-624.48 206.94,-624.48 212.94,-630.48 212.94,-636.48 212.94,-636.48 212.94,-653.52 212.94,-653.52 212.94,-659.52 206.94,-665.52 200.94,-665.52"/>
<text xml:space="preserve" text-anchor="middle" x="161" y="-648.15" font-family="Arial" font-size="10.50" fill="#17201a">Kernel build</text>
<text xml:space="preserve" text-anchor="middle" x="161" y="-635.55" font-family="Arial" font-size="10.50" fill="#17201a">Kbuild + compiler</text>
</g>
<!-- conftest&#45;&gt;kbuild -->
<g id="edge2" class="edge">
<title>conftest&#45;&gt;kbuild</title>
<path fill="none" stroke="#5d675f" stroke-width="1.25" d="M161,-706.34C161,-706.34 161,-674.87 161,-674.87"/>
<polygon fill="#5d675f" stroke="#5d675f" stroke-width="1.25" points="163.45,-674.87 161,-667.87 158.55,-674.87 163.45,-674.87"/>
</g>
<!-- modpost -->
<g id="node4" class="node">
<title>modpost</title>
<path fill="#f4f1e8" stroke="#aeb5aa" stroke-width="1.2" d="M194.62,-583.48C194.62,-583.48 131.38,-583.48 131.38,-583.48 125.38,-583.48 119.38,-577.48 119.38,-571.48 119.38,-571.48 119.38,-554.44 119.38,-554.44 119.38,-548.44 125.38,-542.44 131.38,-542.44 131.38,-542.44 194.62,-542.44 194.62,-542.44 200.62,-542.44 206.62,-548.44 206.62,-554.44 206.62,-554.44 206.62,-571.48 206.62,-571.48 206.62,-577.48 200.62,-583.48 194.62,-583.48"/>
<text xml:space="preserve" text-anchor="middle" x="163" y="-566.11" font-family="Arial" font-size="10.50" fill="#17201a">ABI validation</text>
<text xml:space="preserve" text-anchor="middle" x="163" y="-553.51" font-family="Arial" font-size="10.50" fill="#17201a">MODPOST</text>
</g>
<!-- kbuild&#45;&gt;modpost -->
<g id="edge3" class="edge">
<title>kbuild&#45;&gt;modpost</title>
<path fill="none" stroke="#5d675f" stroke-width="1.25" d="M163,-624.3C163,-624.3 163,-592.83 163,-592.83"/>
<polygon fill="#5d675f" stroke="#5d675f" stroke-width="1.25" points="165.45,-592.83 163,-585.83 160.55,-592.83 165.45,-592.83"/>
</g>
<!-- artifacts -->
<g id="node5" class="node">
<title>artifacts</title>
<path fill="#e4ecd0" stroke="#6f942e" stroke-width="1.2" d="M200.17,-501.44C200.17,-501.44 125.83,-501.44 125.83,-501.44 119.83,-501.44 113.83,-495.44 113.83,-489.44 113.83,-489.44 113.83,-472.4 113.83,-472.4 113.83,-466.4 119.83,-460.4 125.83,-460.4 125.83,-460.4 200.17,-460.4 200.17,-460.4 206.17,-460.4 212.17,-466.4 212.17,-472.4 212.17,-472.4 212.17,-489.44 212.17,-489.44 212.17,-495.44 206.17,-501.44 200.17,-501.44"/>
<text xml:space="preserve" text-anchor="middle" x="163" y="-484.07" font-family="Arial" font-size="10.50" fill="#17201a">Installed objects</text>
<text xml:space="preserve" text-anchor="middle" x="163" y="-471.47" font-family="Arial" font-size="10.50" fill="#17201a">*.ko + depmod</text>
</g>
<!-- modpost&#45;&gt;artifacts -->
<g id="edge4" class="edge">
<title>modpost&#45;&gt;artifacts</title>
<path fill="none" stroke="#5d675f" stroke-width="1.25" d="M163,-542.26C163,-542.26 163,-510.79 163,-510.79"/>
<polygon fill="#5d675f" stroke="#5d675f" stroke-width="1.25" points="165.45,-510.79 163,-503.79 160.55,-510.79 165.45,-510.79"/>
</g>
<!-- load -->
<g id="node7" class="node">
<title>load</title>
<path fill="#f4f1e8" stroke="#aeb5aa" stroke-width="1.2" d="M256.17,-375.2C256.17,-375.2 69.83,-375.2 69.83,-375.2 63.83,-375.2 57.83,-369.2 57.83,-363.2 57.83,-363.2 57.83,-346.16 57.83,-346.16 57.83,-340.16 63.83,-334.16 69.83,-334.16 69.83,-334.16 256.17,-334.16 256.17,-334.16 262.17,-334.16 268.17,-340.16 268.17,-346.16 268.17,-346.16 268.17,-363.2 268.17,-363.2 268.17,-369.2 262.17,-375.2 256.17,-375.2"/>
<text xml:space="preserve" text-anchor="middle" x="163" y="-357.83" font-family="Arial" font-size="10.50" fill="#17201a">Load&#45;time policy</text>
<text xml:space="preserve" text-anchor="middle" x="163" y="-345.23" font-family="Arial" font-size="10.50" fill="#17201a">vermagic · CRCs · symbols · signature</text>
</g>
<!-- artifacts&#45;&gt;load -->
<g id="edge11" class="edge">
<title>artifacts&#45;&gt;load</title>
<path fill="none" stroke="#4f7f10" stroke-width="2.2" d="M163,-460.07C163,-460.07 163,-385.89 163,-385.89"/>
<polygon fill="#4f7f10" stroke="#4f7f10" stroke-width="2.2" points="165.45,-385.89 163,-378.89 160.55,-385.89 165.45,-385.89"/>
<text xml:space="preserve" text-anchor="middle" x="199.77" y="-426.3" font-family="Arial" font-size="9.00" fill="#4f7f10"> DKMS ends here </text>
</g>
<!-- kernel_contract -->
<g id="node6" class="node">
<title>kernel_contract</title>
<polygon fill="#ebe8dc" stroke="#aeb5aa" stroke-width="1.2" points="437.39,-829.6 248.61,-829.6 248.61,-825.6 244.61,-825.6 244.61,-821.6 248.61,-821.6 248.61,-796.56 244.61,-796.56 244.61,-792.56 248.61,-792.56 248.61,-788.56 437.39,-788.56 437.39,-829.6"/>
<polyline fill="none" stroke="#aeb5aa" stroke-width="1.2" points="248.61,-825.6 252.61,-825.6 252.61,-821.6 248.61,-821.6"/>
<polyline fill="none" stroke="#aeb5aa" stroke-width="1.2" points="248.61,-796.56 252.61,-796.56 252.61,-792.56 248.61,-792.56"/>
<text xml:space="preserve" text-anchor="middle" x="343" y="-812.23" font-family="Arial" font-size="10.50" fill="#17201a">Target kernel contract</text>
<text xml:space="preserve" text-anchor="middle" x="343" y="-799.63" font-family="Arial" font-size="10.50" fill="#17201a">headers · config · Module.symvers</text>
</g>
<!-- kernel_contract&#45;&gt;conftest -->
<g id="edge5" class="edge">
<title>kernel_contract&#45;&gt;conftest</title>
<path fill="none" stroke="#5d675f" stroke-width="1.25" d="M253.5,-788.37C253.5,-764.05 253.5,-727 253.5,-727 253.5,-727 217.77,-727 217.77,-727"/>
<polygon fill="#5d675f" stroke="#5d675f" stroke-width="1.25" points="217.77,-724.55 210.77,-727 217.77,-729.45 217.77,-724.55"/>
</g>
<!-- kernel_contract&#45;&gt;kbuild -->
<g id="edge6" class="edge">
<title>kernel_contract&#45;&gt;kbuild</title>
<path fill="none" stroke="#5d675f" stroke-width="1.25" d="M258.39,-787.97C258.39,-743.65 258.39,-645 258.39,-645 258.39,-645 222.29,-645 222.29,-645"/>
<polygon fill="#5d675f" stroke="#5d675f" stroke-width="1.25" points="222.29,-642.55 215.29,-645 222.29,-647.45 222.29,-642.55"/>
</g>
<!-- kernel_contract&#45;&gt;modpost -->
<g id="edge7" class="edge">
<title>kernel_contract&#45;&gt;modpost</title>
<path fill="none" stroke="#5d675f" stroke-width="1.25" d="M263.28,-788.1C263.28,-728.59 263.28,-563 263.28,-563 263.28,-563 215.88,-563 215.88,-563"/>
<polygon fill="#5d675f" stroke="#5d675f" stroke-width="1.25" points="215.88,-560.55 208.88,-563 215.88,-565.45 215.88,-560.55"/>
</g>
<!-- modules -->
<g id="node8" class="node">
<title>modules</title>
<path fill="#f4f1e8" stroke="#aeb5aa" stroke-width="1.2" d="M220.3,-293.16C220.3,-293.16 105.7,-293.16 105.7,-293.16 99.7,-293.16 93.7,-287.16 93.7,-281.16 93.7,-281.16 93.7,-264.12 93.7,-264.12 93.7,-258.12 99.7,-252.12 105.7,-252.12 105.7,-252.12 220.3,-252.12 220.3,-252.12 226.3,-252.12 232.3,-258.12 232.3,-264.12 232.3,-264.12 232.3,-281.16 232.3,-281.16 232.3,-287.16 226.3,-293.16 220.3,-293.16"/>
<text xml:space="preserve" text-anchor="middle" x="163" y="-275.79" font-family="Arial" font-size="10.50" fill="#17201a">Loaded NVIDIA modules</text>
<text xml:space="preserve" text-anchor="middle" x="163" y="-263.19" font-family="Arial" font-size="10.50" fill="#17201a">inter&#45;module ABI</text>
</g>
<!-- load&#45;&gt;modules -->
<g id="edge8" class="edge">
<title>load&#45;&gt;modules</title>
<path fill="none" stroke="#5d675f" stroke-width="1.25" d="M163,-333.98C163,-333.98 163,-302.51 163,-302.51"/>
<polygon fill="#5d675f" stroke="#5d675f" stroke-width="1.25" points="165.45,-302.51 163,-295.51 160.55,-302.51 165.45,-302.51"/>
</g>
<!-- init -->
<g id="node9" class="node">
<title>init</title>
<path fill="#f4f1e8" stroke="#aeb5aa" stroke-width="1.2" d="M238.66,-211.12C238.66,-211.12 87.34,-211.12 87.34,-211.12 81.34,-211.12 75.34,-205.12 75.34,-199.12 75.34,-199.12 75.34,-182.08 75.34,-182.08 75.34,-176.08 81.34,-170.08 87.34,-170.08 87.34,-170.08 238.66,-170.08 238.66,-170.08 244.66,-170.08 250.66,-176.08 250.66,-182.08 250.66,-182.08 250.66,-199.12 250.66,-199.12 250.66,-205.12 244.66,-211.12 238.66,-211.12"/>
<text xml:space="preserve" text-anchor="middle" x="163" y="-193.75" font-family="Arial" font-size="10.50" fill="#17201a">Device initialization</text>
<text xml:space="preserve" text-anchor="middle" x="163" y="-181.15" font-family="Arial" font-size="10.50" fill="#17201a">PCI probe · RM · GSP firmware</text>
</g>
<!-- modules&#45;&gt;init -->
<g id="edge9" class="edge">
<title>modules&#45;&gt;init</title>
<path fill="none" stroke="#5d675f" stroke-width="1.25" d="M163,-251.94C163,-251.94 163,-220.47 163,-220.47"/>
<polygon fill="#5d675f" stroke="#5d675f" stroke-width="1.25" points="165.45,-220.47 163,-213.47 160.55,-220.47 165.45,-220.47"/>
</g>
<!-- devices -->
<g id="node10" class="node">
<title>devices</title>
<path fill="#f4f1e8" stroke="#aeb5aa" stroke-width="1.2" d="M216.21,-129.08C216.21,-129.08 109.79,-129.08 109.79,-129.08 103.79,-129.08 97.79,-123.08 97.79,-117.08 97.79,-117.08 97.79,-100.04 97.79,-100.04 97.79,-94.04 103.79,-88.04 109.79,-88.04 109.79,-88.04 216.21,-88.04 216.21,-88.04 222.21,-88.04 228.21,-94.04 228.21,-100.04 228.21,-100.04 228.21,-117.08 228.21,-117.08 228.21,-123.08 222.21,-129.08 216.21,-129.08"/>
<text xml:space="preserve" text-anchor="middle" x="163" y="-111.71" font-family="Arial" font-size="10.50" fill="#17201a">Kernel interfaces</text>
<text xml:space="preserve" text-anchor="middle" x="163" y="-99.11" font-family="Arial" font-size="10.50" fill="#17201a">/dev/nvidia* · /dev/dri/*</text>
</g>
<!-- init&#45;&gt;devices -->
<g id="edge10" class="edge">
<title>init&#45;&gt;devices</title>
<path fill="none" stroke="#5d675f" stroke-width="1.25" d="M163,-169.9C163,-169.9 163,-138.43 163,-138.43"/>
<polygon fill="#5d675f" stroke="#5d675f" stroke-width="1.25" points="165.45,-138.43 163,-131.43 160.55,-138.43 165.45,-138.43"/>
</g>
<!-- userspace -->
<g id="node11" class="node">
<title>userspace</title>
<polygon fill="#eef3e8" stroke="#6f942e" stroke-width="1.2" points="253.59,-41.04 72.41,-41.04 72.41,-37.04 68.41,-37.04 68.41,-33.04 72.41,-33.04 72.41,-8 68.41,-8 68.41,-4 72.41,-4 72.41,0 253.59,0 253.59,-41.04"/>
<polyline fill="none" stroke="#6f942e" stroke-width="1.2" points="72.41,-37.04 76.41,-37.04 76.41,-33.04 72.41,-33.04"/>
<polyline fill="none" stroke="#6f942e" stroke-width="1.2" points="72.41,-8 76.41,-8 76.41,-4 72.41,-4"/>
<text xml:space="preserve" text-anchor="middle" x="163" y="-23.67" font-family="Arial" font-size="10.50" fill="#17201a">Userspace driver stack</text>
<text xml:space="preserve" text-anchor="middle" x="163" y="-11.07" font-family="Arial" font-size="10.50" fill="#17201a">libcuda · NVML · display libraries</text>
</g>
<!-- devices&#45;&gt;userspace -->
<g id="edge12" class="edge">
<title>devices&#45;&gt;userspace</title>
<path fill="none" stroke="#5d675f" stroke-width="1.25" d="M163,-78.8C163,-78.8 163,-50.43 163,-50.43"/>
<polygon fill="#5d675f" stroke="#5d675f" stroke-width="1.25" points="160.55,-78.8 163,-85.8 165.45,-78.8 160.55,-78.8"/>
<polygon fill="#5d675f" stroke="#5d675f" stroke-width="1.25" points="165.45,-50.43 163,-43.43 160.55,-50.43 165.45,-50.43"/>
</g>
</g>
</svg>
