<!-- Generated by graphviz version 15.0.0 (20260523.1842)
 -->
<!-- Title: runtime_architecture Pages: 1 -->
<svg width="619pt" height="758pt"
 viewBox="0.00 0.00 619.00 758.00" xmlns="http://www.w3.org/2000/svg" xmlns:xlink="http://www.w3.org/1999/xlink">
<g id="graph0" class="graph" transform="scale(1 1) rotate(0) translate(18 740.4)">
<title>runtime_architecture</title>
<g id="clust1" class="cluster">
<title>cluster_userspace</title>
<path fill="#ebe8dc" stroke="#aeb5aa" d="M111,-618.96C111,-618.96 438,-618.96 438,-618.96 444,-618.96 450,-624.96 450,-630.96 450,-630.96 450,-702.4 450,-702.4 450,-708.4 444,-714.4 438,-714.4 438,-714.4 111,-714.4 111,-714.4 105,-714.4 99,-708.4 99,-702.4 99,-702.4 99,-630.96 99,-630.96 99,-624.96 105,-618.96 111,-618.96"/>
<text xml:space="preserve" text-anchor="middle" x="144.01" y="-699.6" font-family="Arial" font-size="12.00" fill="#17201a">USERSPACE</text>
</g>
<g id="clust2" class="cluster">
<title>cluster_interfaces</title>
<path fill="#f0eee6" stroke="#aeb5aa" d="M55,-506.52C55,-506.52 563,-506.52 563,-506.52 569,-506.52 575,-512.52 575,-518.52 575,-518.52 575,-589.96 575,-589.96 575,-595.96 569,-601.96 563,-601.96 563,-601.96 55,-601.96 55,-601.96 49,-601.96 43,-595.96 43,-589.96 43,-589.96 43,-518.52 43,-518.52 43,-512.52 49,-506.52 55,-506.52"/>
<text xml:space="preserve" text-anchor="middle" x="132.35" y="-587.16" font-family="Arial" font-size="12.00" fill="#17201a">LINUX DEVICE INTERFACES</text>
</g>
<g id="clust3" class="cluster">
<title>cluster_modules</title>
<path fill="#edf1df" stroke="#6f942e" stroke-width="1.5" d="M59,-203.6C59,-203.6 473,-203.6 473,-203.6 479,-203.6 485,-209.6 485,-215.6 485,-215.6 485,-477.52 485,-477.52 485,-483.52 479,-489.52 473,-489.52 473,-489.52 59,-489.52 59,-489.52 53,-489.52 47,-483.52 47,-477.52 47,-477.52 47,-215.6 47,-215.6 47,-209.6 53,-203.6 59,-203.6"/>
<text xml:space="preserve" text-anchor="middle" x="132.02" y="-474.72" font-family="Arial" font-size="12.00" fill="#17201a">NVIDIA KERNEL MODULES</text>
</g>
<g id="clust4" class="cluster">
<title>cluster_platform</title>
<path fill="#ebe8dc" stroke="#aeb5aa" d="M20,-8C20,-8 392,-8 392,-8 398,-8 404,-14 404,-20 404,-20 404,-165.4 404,-165.4 404,-171.4 398,-177.4 392,-177.4 392,-177.4 20,-177.4 20,-177.4 14,-177.4 8,-171.4 8,-165.4 8,-165.4 8,-20 8,-20 8,-14 14,-8 20,-8"/>
<text xml:space="preserve" text-anchor="middle" x="125.86" y="-162.6" font-family="Arial" font-size="12.00" fill="#17201a">KERNEL + GPU MANAGEMENT PLANE</text>
</g>
<!-- cuda -->
<g id="node1" class="node">
<title>cuda</title>
<path fill="#f4f1e8" stroke="#aeb5aa" stroke-width="1.15" d="M422.08,-676C422.08,-676 353.92,-676 353.92,-676 347.92,-676 341.92,-670 341.92,-664 341.92,-664 341.92,-646.96 341.92,-646.96 341.92,-640.96 347.92,-634.96 353.92,-634.96 353.92,-634.96 422.08,-634.96 422.08,-634.96 428.08,-634.96 434.08,-640.96 434.08,-646.96 434.08,-646.96 434.08,-664 434.08,-664 434.08,-670 428.08,-676 422.08,-676"/>
<text xml:space="preserve" text-anchor="middle" x="388" y="-658.63" font-family="Arial" font-size="10.50" fill="#17201a">CUDA runtime</text>
<text xml:space="preserve" text-anchor="middle" x="388" y="-646.03" font-family="Arial" font-size="10.50" fill="#17201a">+ NVML</text>
</g>
<!-- dev_rm -->
<g id="node4" class="node">
<title>dev_rm</title>
<path fill="#f4f1e8" stroke="#aeb5aa" stroke-width="1.15" d="M546.59,-563.56C546.59,-563.56 485.41,-563.56 485.41,-563.56 479.41,-563.56 473.41,-557.56 473.41,-551.56 473.41,-551.56 473.41,-534.52 473.41,-534.52 473.41,-528.52 479.41,-522.52 485.41,-522.52 485.41,-522.52 546.59,-522.52 546.59,-522.52 552.59,-522.52 558.59,-528.52 558.59,-534.52 558.59,-534.52 558.59,-551.56 558.59,-551.56 558.59,-557.56 552.59,-563.56 546.59,-563.56"/>
<text xml:space="preserve" text-anchor="middle" x="516" y="-546.19" font-family="Arial" font-size="10.50" fill="#17201a">/dev/nvidiactl</text>
<text xml:space="preserve" text-anchor="middle" x="516" y="-533.59" font-family="Arial" font-size="10.50" fill="#17201a">/dev/nvidiaN</text>
</g>
<!-- cuda&#45;&gt;dev_rm -->
<g id="edge1" class="edge">
<title>cuda&#45;&gt;dev_rm</title>
<path fill="none" stroke="#5d675f" stroke-width="1.2" d="M434.57,-655C471.17,-655 516,-655 516,-655 516,-655 516,-572.72 516,-572.72"/>
<polygon fill="#5d675f" stroke="#5d675f" stroke-width="1.2" points="518.38,-572.72 516,-565.92 513.62,-572.72 518.38,-572.72"/>
</g>
<!-- dev_uvm -->
<g id="node5" class="node">
<title>dev_uvm</title>
<path fill="#f4f1e8" stroke="#aeb5aa" stroke-width="1.15" d="M437.01,-561.04C437.01,-561.04 362.99,-561.04 362.99,-561.04 356.99,-561.04 350.99,-555.04 350.99,-549.04 350.99,-549.04 350.99,-537.04 350.99,-537.04 350.99,-531.04 356.99,-525.04 362.99,-525.04 362.99,-525.04 437.01,-525.04 437.01,-525.04 443.01,-525.04 449.01,-531.04 449.01,-537.04 449.01,-537.04 449.01,-549.04 449.01,-549.04 449.01,-555.04 443.01,-561.04 437.01,-561.04"/>
<text xml:space="preserve" text-anchor="middle" x="400" y="-539.89" font-family="Arial" font-size="10.50" fill="#17201a">/dev/nvidia&#45;uvm</text>
</g>
<!-- cuda&#45;&gt;dev_uvm -->
<g id="edge2" class="edge">
<title>cuda&#45;&gt;dev_uvm</title>
<path fill="none" stroke="#5d675f" stroke-width="1.2" d="M392.54,-634.59C392.54,-634.59 392.54,-570.19 392.54,-570.19"/>
<polygon fill="#5d675f" stroke="#5d675f" stroke-width="1.2" points="394.92,-570.19 392.54,-563.39 390.16,-570.19 394.92,-570.19"/>
</g>
<!-- display -->
<g id="node2" class="node">
<title>display</title>
<path fill="#f4f1e8" stroke="#aeb5aa" stroke-width="1.15" d="M199.13,-676C199.13,-676 126.87,-676 126.87,-676 120.87,-676 114.87,-670 114.87,-664 114.87,-664 114.87,-646.96 114.87,-646.96 114.87,-640.96 120.87,-634.96 126.87,-634.96 126.87,-634.96 199.13,-634.96 199.13,-634.96 205.13,-634.96 211.13,-640.96 211.13,-646.96 211.13,-646.96 211.13,-664 211.13,-664 211.13,-670 205.13,-676 199.13,-676"/>
<text xml:space="preserve" text-anchor="middle" x="163" y="-658.63" font-family="Arial" font-size="10.50" fill="#17201a">Wayland / Xorg</text>
<text xml:space="preserve" text-anchor="middle" x="163" y="-646.03" font-family="Arial" font-size="10.50" fill="#17201a">+ GBM</text>
</g>
<!-- dev_dri -->
<g id="node6" class="node">
<title>dev_dri</title>
<path fill="#f4f1e8" stroke="#aeb5aa" stroke-width="1.15" d="M150.93,-563.56C150.93,-563.56 71.07,-563.56 71.07,-563.56 65.07,-563.56 59.07,-557.56 59.07,-551.56 59.07,-551.56 59.07,-534.52 59.07,-534.52 59.07,-528.52 65.07,-522.52 71.07,-522.52 71.07,-522.52 150.93,-522.52 150.93,-522.52 156.93,-522.52 162.93,-528.52 162.93,-534.52 162.93,-534.52 162.93,-551.56 162.93,-551.56 162.93,-557.56 156.93,-563.56 150.93,-563.56"/>
<text xml:space="preserve" text-anchor="middle" x="111" y="-546.19" font-family="Arial" font-size="10.50" fill="#17201a">/dev/dri/card*</text>
<text xml:space="preserve" text-anchor="middle" x="111" y="-533.59" font-family="Arial" font-size="10.50" fill="#17201a">/dev/dri/renderD*</text>
</g>
<!-- display&#45;&gt;dev_dri -->
<g id="edge3" class="edge">
<title>display&#45;&gt;dev_dri</title>
<path fill="none" stroke="#5d675f" stroke-width="1.2" d="M138.9,-634.59C138.9,-634.59 138.9,-572.43 138.9,-572.43"/>
<polygon fill="#5d675f" stroke="#5d675f" stroke-width="1.2" points="141.28,-572.43 138.9,-565.63 136.52,-572.43 141.28,-572.43"/>
</g>
<!-- rdma_client -->
<g id="node3" class="node">
<title>rdma_client</title>
<path fill="#f4f1e8" stroke="#aeb5aa" stroke-width="1.15" d="M306.41,-673.48C306.41,-673.48 247.59,-673.48 247.59,-673.48 241.59,-673.48 235.59,-667.48 235.59,-661.48 235.59,-661.48 235.59,-649.48 235.59,-649.48 235.59,-643.48 241.59,-637.48 247.59,-637.48 247.59,-637.48 306.41,-637.48 306.41,-637.48 312.41,-637.48 318.41,-643.48 318.41,-649.48 318.41,-649.48 318.41,-661.48 318.41,-661.48 318.41,-667.48 312.41,-673.48 306.41,-673.48"/>
<text xml:space="preserve" text-anchor="middle" x="277" y="-652.33" font-family="Arial" font-size="10.50" fill="#17201a">RDMA client</text>
</g>
<!-- rdma_api -->
<g id="node7" class="node">
<title>rdma_api</title>
<path fill="#f4f1e8" stroke="#aeb5aa" stroke-width="1.15" d="M315.29,-561.04C315.29,-561.04 198.71,-561.04 198.71,-561.04 192.71,-561.04 186.71,-555.04 186.71,-549.04 186.71,-549.04 186.71,-537.04 186.71,-537.04 186.71,-531.04 192.71,-525.04 198.71,-525.04 198.71,-525.04 315.29,-525.04 315.29,-525.04 321.29,-525.04 327.29,-531.04 327.29,-537.04 327.29,-537.04 327.29,-549.04 327.29,-549.04 327.29,-555.04 321.29,-561.04 315.29,-561.04"/>
<text xml:space="preserve" text-anchor="middle" x="257" y="-539.89" font-family="Arial" font-size="10.50" fill="#17201a">RDMA peer&#45;memory API</text>
</g>
<!-- rdma_client&#45;&gt;rdma_api -->
<g id="edge4" class="edge">
<title>rdma_client&#45;&gt;rdma_api</title>
<path fill="none" stroke="#5d675f" stroke-width="1.2" d="M277,-636.91C277,-636.91 277,-569.88 277,-569.88"/>
<polygon fill="#5d675f" stroke="#5d675f" stroke-width="1.2" points="279.38,-569.88 277,-563.08 274.62,-569.88 279.38,-569.88"/>
</g>
<!-- nvidia -->
<g id="node8" class="node">
<title>nvidia</title>
<path fill="#e4ecd0" stroke="#6f942e" stroke-width="1.15" d="M390.42,-262.64C390.42,-262.64 275.58,-262.64 275.58,-262.64 269.58,-262.64 263.58,-256.64 263.58,-250.64 263.58,-250.64 263.58,-233.6 263.58,-233.6 263.58,-227.6 269.58,-221.6 275.58,-221.6 275.58,-221.6 390.42,-221.6 390.42,-221.6 396.42,-221.6 402.42,-227.6 402.42,-233.6 402.42,-233.6 402.42,-250.64 402.42,-250.64 402.42,-256.64 396.42,-262.64 390.42,-262.64"/>
<text xml:space="preserve" text-anchor="middle" x="333" y="-245.27" font-family="Arial" font-size="10.50" fill="#17201a">nvidia.ko</text>
<text xml:space="preserve" text-anchor="middle" x="333" y="-232.67" font-family="Arial" font-size="10.50" fill="#17201a">RM · PCI · GPU control</text>
</g>
<!-- dev_rm&#45;&gt;nvidia -->
<g id="edge5" class="edge">
<title>dev_rm&#45;&gt;nvidia</title>
<path fill="none" stroke="#5d675f" stroke-width="1.2" d="M516,-522.35C516,-454.33 516,-242 516,-242 516,-242 411.58,-242 411.58,-242"/>
<polygon fill="#5d675f" stroke="#5d675f" stroke-width="1.2" points="411.58,-239.62 404.78,-242 411.58,-244.38 411.58,-239.62"/>
<text xml:space="preserve" text-anchor="middle" x="535.27" y="-379.43" font-family="Arial" font-size="8.50" fill="#5d675f"> ioctl / mmap </text>
</g>
<!-- uvm -->
<g id="node9" class="node">
<title>uvm</title>
<path fill="#f4f1e8" stroke="#aeb5aa" stroke-width="1.15" d="M455.05,-355.88C455.05,-355.88 348.95,-355.88 348.95,-355.88 342.95,-355.88 336.95,-349.88 336.95,-343.88 336.95,-343.88 336.95,-326.84 336.95,-326.84 336.95,-320.84 342.95,-314.84 348.95,-314.84 348.95,-314.84 455.05,-314.84 455.05,-314.84 461.05,-314.84 467.05,-320.84 467.05,-326.84 467.05,-326.84 467.05,-343.88 467.05,-343.88 467.05,-349.88 461.05,-355.88 455.05,-355.88"/>
<text xml:space="preserve" text-anchor="middle" x="402" y="-338.51" font-family="Arial" font-size="10.50" fill="#17201a">nvidia&#45;uvm.ko</text>
<text xml:space="preserve" text-anchor="middle" x="402" y="-325.91" font-family="Arial" font-size="10.50" fill="#17201a">VA · migration · faults</text>
</g>
<!-- dev_uvm&#45;&gt;uvm -->
<g id="edge6" class="edge">
<title>dev_uvm&#45;&gt;uvm</title>
<path fill="none" stroke="#5d675f" stroke-width="1.2" d="M400,-524.61C400,-524.61 400,-364.81 400,-364.81"/>
<polygon fill="#5d675f" stroke="#5d675f" stroke-width="1.2" points="402.38,-364.81 400,-358.01 397.62,-364.81 402.38,-364.81"/>
</g>
<!-- drm -->
<g id="node10" class="node">
<title>drm</title>
<path fill="#f4f1e8" stroke="#aeb5aa" stroke-width="1.15" d="M159.08,-449.12C159.08,-449.12 76.92,-449.12 76.92,-449.12 70.92,-449.12 64.92,-443.12 64.92,-437.12 64.92,-437.12 64.92,-420.08 64.92,-420.08 64.92,-414.08 70.92,-408.08 76.92,-408.08 76.92,-408.08 159.08,-408.08 159.08,-408.08 165.08,-408.08 171.08,-414.08 171.08,-420.08 171.08,-420.08 171.08,-437.12 171.08,-437.12 171.08,-443.12 165.08,-449.12 159.08,-449.12"/>
<text xml:space="preserve" text-anchor="middle" x="118" y="-431.75" font-family="Arial" font-size="10.50" fill="#17201a">nvidia&#45;drm.ko</text>
<text xml:space="preserve" text-anchor="middle" x="118" y="-419.15" font-family="Arial" font-size="10.50" fill="#17201a">DRM/KMS bridge</text>
</g>
<!-- dev_dri&#45;&gt;drm -->
<g id="edge7" class="edge">
<title>dev_dri&#45;&gt;drm</title>
<path fill="none" stroke="#5d675f" stroke-width="1.2" d="M113.92,-522.05C113.92,-522.05 113.92,-458.07 113.92,-458.07"/>
<polygon fill="#5d675f" stroke="#5d675f" stroke-width="1.2" points="116.3,-458.07 113.92,-451.27 111.54,-458.07 116.3,-458.07"/>
</g>
<!-- peermem -->
<g id="node12" class="node">
<title>peermem</title>
<path fill="#f4f1e8" stroke="#aeb5aa" stroke-width="1.15" d="M300.88,-355.88C300.88,-355.88 211.12,-355.88 211.12,-355.88 205.12,-355.88 199.12,-349.88 199.12,-343.88 199.12,-343.88 199.12,-326.84 199.12,-326.84 199.12,-320.84 205.12,-314.84 211.12,-314.84 211.12,-314.84 300.88,-314.84 300.88,-314.84 306.88,-314.84 312.88,-320.84 312.88,-326.84 312.88,-326.84 312.88,-343.88 312.88,-343.88 312.88,-349.88 306.88,-355.88 300.88,-355.88"/>
<text xml:space="preserve" text-anchor="middle" x="256" y="-338.51" font-family="Arial" font-size="10.50" fill="#17201a">nvidia&#45;peermem.ko</text>
<text xml:space="preserve" text-anchor="middle" x="256" y="-325.91" font-family="Arial" font-size="10.50" fill="#17201a">peer&#45;memory glue</text>
</g>
<!-- rdma_api&#45;&gt;peermem -->
<g id="edge8" class="edge">
<title>rdma_api&#45;&gt;peermem</title>
<path fill="none" stroke="#5d675f" stroke-width="1.2" d="M256,-524.61C256,-524.61 256,-364.81 256,-364.81"/>
<polygon fill="#5d675f" stroke="#5d675f" stroke-width="1.2" points="258.38,-364.81 256,-358.01 253.62,-364.81 258.38,-364.81"/>
</g>
<!-- gsp -->
<g id="node15" class="node">
<title>gsp</title>
<path fill="#f4f1e8" stroke="#aeb5aa" stroke-width="1.15" d="M375.82,-139C375.82,-139 290.18,-139 290.18,-139 284.18,-139 278.18,-133 278.18,-127 278.18,-127 278.18,-115 278.18,-115 278.18,-109 284.18,-103 290.18,-103 290.18,-103 375.82,-103 375.82,-103 381.82,-103 387.82,-109 387.82,-115 387.82,-115 387.82,-127 387.82,-127 387.82,-133 381.82,-139 375.82,-139"/>
<text xml:space="preserve" text-anchor="middle" x="333" y="-117.85" font-family="Arial" font-size="10.50" fill="#17201a">GSP&#45;RM firmware</text>
</g>
<!-- nvidia&#45;&gt;gsp -->
<g id="edge15" class="edge">
<title>nvidia&#45;&gt;gsp</title>
<path fill="none" stroke="#5d675f" stroke-width="1.2" d="M333,-221.3C333,-221.3 333,-148.18 333,-148.18"/>
<polygon fill="#5d675f" stroke="#5d675f" stroke-width="1.2" points="335.38,-148.18 333,-141.38 330.62,-148.18 335.38,-148.18"/>
<text xml:space="preserve" text-anchor="middle" x="361.11" y="-187.95" font-family="Arial" font-size="8.50" fill="#5d675f"> firmware boot </text>
</g>
<!-- uvm&#45;&gt;nvidia -->
<g id="edge9" class="edge">
<title>uvm&#45;&gt;nvidia</title>
<path fill="none" stroke="#5d675f" stroke-width="1.2" d="M369.68,-314.67C369.68,-314.67 369.68,-271.69 369.68,-271.69"/>
<polygon fill="#5d675f" stroke="#5d675f" stroke-width="1.2" points="372.06,-271.69 369.68,-264.89 367.3,-271.69 372.06,-271.69"/>
<text xml:space="preserve" text-anchor="middle" x="377.45" y="-286.19" font-family="Arial" font-size="8.50" fill="#5d675f"> RM interface </text>
</g>
<!-- modeset -->
<g id="node11" class="node">
<title>modeset</title>
<path fill="#f4f1e8" stroke="#aeb5aa" stroke-width="1.15" d="M162.84,-355.88C162.84,-355.88 77.16,-355.88 77.16,-355.88 71.16,-355.88 65.16,-349.88 65.16,-343.88 65.16,-343.88 65.16,-326.84 65.16,-326.84 65.16,-320.84 71.16,-314.84 77.16,-314.84 77.16,-314.84 162.84,-314.84 162.84,-314.84 168.84,-314.84 174.84,-320.84 174.84,-326.84 174.84,-326.84 174.84,-343.88 174.84,-343.88 174.84,-349.88 168.84,-355.88 162.84,-355.88"/>
<text xml:space="preserve" text-anchor="middle" x="120" y="-338.51" font-family="Arial" font-size="10.50" fill="#17201a">nvidia&#45;modeset.ko</text>
<text xml:space="preserve" text-anchor="middle" x="120" y="-325.91" font-family="Arial" font-size="10.50" fill="#17201a">NVKMS</text>
</g>
<!-- drm&#45;&gt;modeset -->
<g id="edge10" class="edge">
<title>drm&#45;&gt;modeset</title>
<path fill="none" stroke="#5d675f" stroke-width="1.2" d="M118.12,-407.91C118.12,-407.91 118.12,-364.93 118.12,-364.93"/>
<polygon fill="#5d675f" stroke="#5d675f" stroke-width="1.2" points="120.5,-364.93 118.12,-358.13 115.74,-364.93 120.5,-364.93"/>
</g>
<!-- drm_core -->
<g id="node13" class="node">
<title>drm_core</title>
<path fill="#f4f1e8" stroke="#aeb5aa" stroke-width="1.15" d="M111.88,-139C111.88,-139 36.12,-139 36.12,-139 30.12,-139 24.12,-133 24.12,-127 24.12,-127 24.12,-115 24.12,-115 24.12,-109 30.12,-103 36.12,-103 36.12,-103 111.88,-103 111.88,-103 117.88,-103 123.88,-109 123.88,-115 123.88,-115 123.88,-127 123.88,-127 123.88,-133 117.88,-139 111.88,-139"/>
<text xml:space="preserve" text-anchor="middle" x="74" y="-117.85" font-family="Arial" font-size="10.50" fill="#17201a">Linux DRM core</text>
</g>
<!-- drm&#45;&gt;drm_core -->
<g id="edge11" class="edge">
<title>drm&#45;&gt;drm_core</title>
<path fill="none" stroke="#5d675f" stroke-width="1.2" d="M64.52,-429C51.68,-429 41.6,-429 41.6,-429 41.6,-429 41.6,-147.96 41.6,-147.96"/>
<polygon fill="#5d675f" stroke="#5d675f" stroke-width="1.2" points="43.98,-147.96 41.6,-141.16 39.22,-147.96 43.98,-147.96"/>
</g>
<!-- modeset&#45;&gt;nvidia -->
<g id="edge12" class="edge">
<title>modeset&#45;&gt;nvidia</title>
<path fill="none" stroke="#5d675f" stroke-width="1.2" d="M161.23,-314.64C161.23,-287.14 161.23,-242 161.23,-242 161.23,-242 254.52,-242 254.52,-242"/>
<polygon fill="#5d675f" stroke="#5d675f" stroke-width="1.2" points="254.52,-244.38 261.32,-242 254.52,-239.62 254.52,-244.38"/>
</g>
<!-- peermem&#45;&gt;nvidia -->
<g id="edge13" class="edge">
<title>peermem&#45;&gt;nvidia</title>
<path fill="none" stroke="#5d675f" stroke-width="1.2" d="M288.23,-314.67C288.23,-314.67 288.23,-271.69 288.23,-271.69"/>
<polygon fill="#5d675f" stroke="#5d675f" stroke-width="1.2" points="290.61,-271.69 288.23,-264.89 285.85,-271.69 290.61,-271.69"/>
</g>
<!-- rdma_core -->
<g id="node14" class="node">
<title>rdma_core</title>
<path fill="#f4f1e8" stroke="#aeb5aa" stroke-width="1.15" d="M242.38,-139C242.38,-139 159.62,-139 159.62,-139 153.62,-139 147.62,-133 147.62,-127 147.62,-127 147.62,-115 147.62,-115 147.62,-109 153.62,-103 159.62,-103 159.62,-103 242.38,-103 242.38,-103 248.38,-103 254.38,-109 254.38,-115 254.38,-115 254.38,-127 254.38,-127 254.38,-133 248.38,-139 242.38,-139"/>
<text xml:space="preserve" text-anchor="middle" x="201" y="-117.85" font-family="Arial" font-size="10.50" fill="#17201a">Linux RDMA core</text>
</g>
<!-- peermem&#45;&gt;rdma_core -->
<g id="edge14" class="edge">
<title>peermem&#45;&gt;rdma_core</title>
<path fill="none" stroke="#5d675f" stroke-width="1.2" d="M226.75,-314.42C226.75,-314.42 226.75,-148.18 226.75,-148.18"/>
<polygon fill="#5d675f" stroke="#5d675f" stroke-width="1.2" points="229.13,-148.18 226.75,-141.38 224.37,-148.18 229.13,-148.18"/>
</g>
<!-- gpu -->
<g id="node16" class="node">
<title>gpu</title>
<polygon fill="#eef3e8" stroke="#6f942e" stroke-width="1.15" points="379.96,-60 286.04,-60 286.04,-56 282.04,-56 282.04,-52 286.04,-52 286.04,-32 282.04,-32 282.04,-28 286.04,-28 286.04,-24 379.96,-24 379.96,-60"/>
<polyline fill="none" stroke="#6f942e" stroke-width="1.15" points="286.04,-56 290.04,-56 290.04,-52 286.04,-52"/>
<polyline fill="none" stroke="#6f942e" stroke-width="1.15" points="286.04,-32 290.04,-32 290.04,-28 286.04,-28"/>
<text xml:space="preserve" text-anchor="middle" x="333" y="-38.85" font-family="Arial" font-size="10.50" fill="#17201a">GPU hardware</text>
</g>
<!-- gsp&#45;&gt;gpu -->
<g id="edge16" class="edge">
<title>gsp&#45;&gt;gpu</title>
<path fill="none" stroke="#5d675f" stroke-width="1.2" d="M333,-102.68C333,-102.68 333,-69.11 333,-69.11"/>
<polygon fill="#5d675f" stroke="#5d675f" stroke-width="1.2" points="335.38,-69.11 333,-62.31 330.62,-69.11 335.38,-69.11"/>
</g>
</g>
</svg>
