<!-- Generated by graphviz version 15.0.0 (20260523.1842)
 -->
<!-- Title: module_build Pages: 1 -->
<svg width="836pt" height="356pt"
 viewBox="0.00 0.00 836.00 356.00" xmlns="http://www.w3.org/2000/svg" xmlns:xlink="http://www.w3.org/1999/xlink">
<g id="graph0" class="graph" transform="scale(1 1) rotate(0) translate(18 338.12)">
<title>module_build</title>
<g id="clust1" class="cluster">
<title>cluster_portable</title>
<path fill="#edf1df" stroke="#6f942e" stroke-width="1.5" d="M20,-8C20,-8 330,-8 330,-8 336,-8 342,-14 342,-20 342,-20 342,-259.08 342,-259.08 342,-265.08 336,-271.08 330,-271.08 330,-271.08 20,-271.08 20,-271.08 14,-271.08 8,-265.08 8,-259.08 8,-259.08 8,-20 8,-20 8,-14 14,-8 20,-8"/>
<text xml:space="preserve" text-anchor="middle" x="151.53" y="-256.28" font-family="Arial" font-size="12.00" fill="#17201a">PORTABLE DRIVER CORE + LINUX INTERFACE</text>
</g>
<g id="clust4" class="cluster">
<title>cluster_linux</title>
<path fill="#ebe8dc" stroke="#aeb5aa" d="M362,-8C362,-8 780,-8 780,-8 786,-8 792,-14 792,-20 792,-20 792,-259.08 792,-259.08 792,-265.08 786,-271.08 780,-271.08 780,-271.08 362,-271.08 362,-271.08 356,-271.08 350,-265.08 350,-259.08 350,-259.08 350,-20 350,-20 350,-14 356,-8 362,-8"/>
<text xml:space="preserve" text-anchor="middle" x="459.34" y="-256.28" font-family="Arial" font-size="12.00" fill="#17201a">LINUX&#45;FACING IMPLEMENTATIONS</text>
</g>
<!-- contract -->
<g id="node1" class="node">
<title>contract</title>
<polygon fill="#ebe8dc" stroke="#aeb5aa" stroke-width="1.15" points="468.83,-320.12 277.17,-320.12 277.17,-316.12 273.17,-316.12 273.17,-312.12 277.17,-312.12 277.17,-287.08 273.17,-287.08 273.17,-283.08 277.17,-283.08 277.17,-279.08 468.83,-279.08 468.83,-320.12"/>
<polyline fill="none" stroke="#aeb5aa" stroke-width="1.15" points="277.17,-316.12 281.17,-316.12 281.17,-312.12 277.17,-312.12"/>
<polyline fill="none" stroke="#aeb5aa" stroke-width="1.15" points="277.17,-287.08 281.17,-287.08 281.17,-283.08 277.17,-283.08"/>
<text xml:space="preserve" text-anchor="middle" x="373" y="-302.75" font-family="Arial" font-size="10.50" fill="#17201a">Target kernel contract</text>
<text xml:space="preserve" text-anchor="middle" x="373" y="-290.15" font-family="Arial" font-size="10.50" fill="#17201a">headers · config · Module.symvers</text>
</g>
<!-- portable_build -->
<g id="node2" class="node">
<title>portable_build</title>
<path fill="#e4ecd0" stroke="#6f942e" stroke-width="1.15" d="M311.9,-230.68C311.9,-230.68 164.1,-230.68 164.1,-230.68 158.1,-230.68 152.1,-224.68 152.1,-218.68 152.1,-218.68 152.1,-206.68 152.1,-206.68 152.1,-200.68 158.1,-194.68 164.1,-194.68 164.1,-194.68 311.9,-194.68 311.9,-194.68 317.9,-194.68 323.9,-200.68 323.9,-206.68 323.9,-206.68 323.9,-218.68 323.9,-218.68 323.9,-224.68 317.9,-230.68 311.9,-230.68"/>
<text xml:space="preserve" text-anchor="middle" x="238" y="-209.53" font-family="Arial" font-size="10.50" fill="#17201a">Kbuild + compiler + MODPOST</text>
</g>
<!-- contract&#45;&gt;portable_build -->
<g id="edge11" class="edge">
<title>contract&#45;&gt;portable_build</title>
<path fill="none" stroke="#5d675f" stroke-width="1.2" d="M300.54,-278.56C300.54,-278.56 300.54,-239.48 300.54,-239.48"/>
<polygon fill="#5d675f" stroke="#5d675f" stroke-width="1.2" points="302.81,-239.48 300.54,-232.98 298.26,-239.48 302.81,-239.48"/>
</g>
<!-- linux_build -->
<g id="node7" class="node">
<title>linux_build</title>
<path fill="#f4f1e8" stroke="#aeb5aa" stroke-width="1.15" d="M582.9,-230.68C582.9,-230.68 435.1,-230.68 435.1,-230.68 429.1,-230.68 423.1,-224.68 423.1,-218.68 423.1,-218.68 423.1,-206.68 423.1,-206.68 423.1,-200.68 429.1,-194.68 435.1,-194.68 435.1,-194.68 582.9,-194.68 582.9,-194.68 588.9,-194.68 594.9,-200.68 594.9,-206.68 594.9,-206.68 594.9,-218.68 594.9,-218.68 594.9,-224.68 588.9,-230.68 582.9,-230.68"/>
<text xml:space="preserve" text-anchor="middle" x="509" y="-209.53" font-family="Arial" font-size="10.50" fill="#17201a">Kbuild + compiler + MODPOST</text>
</g>
<!-- contract&#45;&gt;linux_build -->
<g id="edge12" class="edge">
<title>contract&#45;&gt;linux_build</title>
<path fill="none" stroke="#5d675f" stroke-width="1.2" d="M445.96,-278.56C445.96,-278.56 445.96,-239.48 445.96,-239.48"/>
<polygon fill="#5d675f" stroke="#5d675f" stroke-width="1.2" points="448.24,-239.48 445.96,-232.98 443.69,-239.48 448.24,-239.48"/>
</g>
<!-- rm_unit -->
<g id="node3" class="node">
<title>rm_unit</title>
<path fill="#f4f1e8" stroke="#aeb5aa" stroke-width="1.15" d="M126.15,-157.68C126.15,-157.68 37.85,-157.68 37.85,-157.68 31.85,-157.68 25.85,-151.68 25.85,-145.68 25.85,-145.68 25.85,-116.04 25.85,-116.04 25.85,-110.04 31.85,-104.04 37.85,-104.04 37.85,-104.04 126.15,-104.04 126.15,-104.04 132.15,-104.04 138.15,-110.04 138.15,-116.04 138.15,-116.04 138.15,-145.68 138.15,-145.68 138.15,-151.68 132.15,-157.68 126.15,-157.68"/>
<text xml:space="preserve" text-anchor="middle" x="82" y="-140.31" font-family="Arial" font-size="10.50" fill="#17201a">RM core</text>
<text xml:space="preserve" text-anchor="middle" x="82" y="-127.71" font-family="Arial" font-size="10.50" fill="#17201a">nv&#45;kernel.o_binary</text>
<text xml:space="preserve" text-anchor="middle" x="82" y="-115.11" font-family="Arial" font-size="10.50" fill="#17201a">+ Linux interface</text>
</g>
<!-- portable_build&#45;&gt;rm_unit -->
<g id="edge1" class="edge">
<title>portable_build&#45;&gt;rm_unit</title>
<path fill="none" stroke="#5d675f" stroke-width="1.2" d="M160.03,-194.15C160.03,-170.05 160.03,-131 160.03,-131 160.03,-131 147.03,-131 147.03,-131"/>
<polygon fill="#5d675f" stroke="#5d675f" stroke-width="1.2" points="147.03,-128.73 140.53,-131 147.03,-133.28 147.03,-128.73"/>
</g>
<!-- modeset_unit -->
<g id="node4" class="node">
<title>modeset_unit</title>
<path fill="#f4f1e8" stroke="#aeb5aa" stroke-width="1.15" d="M312.03,-157.68C312.03,-157.68 179.97,-157.68 179.97,-157.68 173.97,-157.68 167.97,-151.68 167.97,-145.68 167.97,-145.68 167.97,-116.04 167.97,-116.04 167.97,-110.04 173.97,-104.04 179.97,-104.04 179.97,-104.04 312.03,-104.04 312.03,-104.04 318.03,-104.04 324.03,-110.04 324.03,-116.04 324.03,-116.04 324.03,-145.68 324.03,-145.68 324.03,-151.68 318.03,-157.68 312.03,-157.68"/>
<text xml:space="preserve" text-anchor="middle" x="246" y="-140.31" font-family="Arial" font-size="10.50" fill="#17201a">NVKMS core</text>
<text xml:space="preserve" text-anchor="middle" x="246" y="-127.71" font-family="Arial" font-size="10.50" fill="#17201a">nv&#45;modeset&#45;kernel.o_binary</text>
<text xml:space="preserve" text-anchor="middle" x="246" y="-115.11" font-family="Arial" font-size="10.50" fill="#17201a">+ Linux interface</text>
</g>
<!-- portable_build&#45;&gt;modeset_unit -->
<g id="edge2" class="edge">
<title>portable_build&#45;&gt;modeset_unit</title>
<path fill="none" stroke="#5d675f" stroke-width="1.2" d="M245.93,-194.11C245.93,-194.11 245.93,-166.36 245.93,-166.36"/>
<polygon fill="#5d675f" stroke="#5d675f" stroke-width="1.2" points="248.21,-166.36 245.93,-159.86 243.66,-166.36 248.21,-166.36"/>
</g>
<!-- nvidia -->
<g id="node5" class="node">
<title>nvidia</title>
<path fill="#eef3e8" stroke="#6f942e" stroke-width="1.15" d="M125.56,-67.04C125.56,-67.04 38.44,-67.04 38.44,-67.04 32.44,-67.04 26.44,-61.04 26.44,-55.04 26.44,-55.04 26.44,-38 26.44,-38 26.44,-32 32.44,-26 38.44,-26 38.44,-26 125.56,-26 125.56,-26 131.56,-26 137.56,-32 137.56,-38 137.56,-38 137.56,-55.04 137.56,-55.04 137.56,-61.04 131.56,-67.04 125.56,-67.04"/>
<text xml:space="preserve" text-anchor="middle" x="82" y="-49.67" font-family="Arial" font-size="10.50" fill="#17201a">nvidia.ko</text>
<text xml:space="preserve" text-anchor="middle" x="82" y="-37.07" font-family="Arial" font-size="10.50" fill="#17201a">resource manager</text>
</g>
<!-- rm_unit&#45;&gt;nvidia -->
<g id="edge3" class="edge">
<title>rm_unit&#45;&gt;nvidia</title>
<path fill="none" stroke="#5d675f" stroke-width="1.2" d="M82,-103.71C82,-103.71 82,-75.78 82,-75.78"/>
<polygon fill="#5d675f" stroke="#5d675f" stroke-width="1.2" points="84.28,-75.78 82,-69.28 79.73,-75.78 84.28,-75.78"/>
</g>
<!-- modeset -->
<g id="node6" class="node">
<title>modeset</title>
<path fill="#f4f1e8" stroke="#aeb5aa" stroke-width="1.15" d="M289.56,-67.04C289.56,-67.04 202.44,-67.04 202.44,-67.04 196.44,-67.04 190.44,-61.04 190.44,-55.04 190.44,-55.04 190.44,-38 190.44,-38 190.44,-32 196.44,-26 202.44,-26 202.44,-26 289.56,-26 289.56,-26 295.56,-26 301.56,-32 301.56,-38 301.56,-38 301.56,-55.04 301.56,-55.04 301.56,-61.04 295.56,-67.04 289.56,-67.04"/>
<text xml:space="preserve" text-anchor="middle" x="246" y="-49.67" font-family="Arial" font-size="10.50" fill="#17201a">nvidia&#45;modeset.ko</text>
<text xml:space="preserve" text-anchor="middle" x="246" y="-37.07" font-family="Arial" font-size="10.50" fill="#17201a">display control</text>
</g>
<!-- modeset_unit&#45;&gt;modeset -->
<g id="edge4" class="edge">
<title>modeset_unit&#45;&gt;modeset</title>
<path fill="none" stroke="#5d675f" stroke-width="1.2" d="M246,-103.71C246,-103.71 246,-75.78 246,-75.78"/>
<polygon fill="#5d675f" stroke="#5d675f" stroke-width="1.2" points="248.28,-75.78 246,-69.28 243.73,-75.78 248.28,-75.78"/>
</g>
<!-- drm_unit -->
<g id="node8" class="node">
<title>drm_unit</title>
<path fill="#f4f1e8" stroke="#aeb5aa" stroke-width="1.15" d="M465.97,-148.86C465.97,-148.86 380.03,-148.86 380.03,-148.86 374.03,-148.86 368.03,-142.86 368.03,-136.86 368.03,-136.86 368.03,-124.86 368.03,-124.86 368.03,-118.86 374.03,-112.86 380.03,-112.86 380.03,-112.86 465.97,-112.86 465.97,-112.86 471.97,-112.86 477.97,-118.86 477.97,-124.86 477.97,-124.86 477.97,-136.86 477.97,-136.86 477.97,-142.86 471.97,-148.86 465.97,-148.86"/>
<text xml:space="preserve" text-anchor="middle" x="423" y="-127.71" font-family="Arial" font-size="10.50" fill="#17201a">DRM/KMS source</text>
</g>
<!-- linux_build&#45;&gt;drm_unit -->
<g id="edge5" class="edge">
<title>linux_build&#45;&gt;drm_unit</title>
<path fill="none" stroke="#5d675f" stroke-width="1.2" d="M450.53,-194.11C450.53,-194.11 450.53,-157.67 450.53,-157.67"/>
<polygon fill="#5d675f" stroke="#5d675f" stroke-width="1.2" points="452.81,-157.67 450.53,-151.17 448.26,-157.67 452.81,-157.67"/>
</g>
<!-- uvm_unit -->
<g id="node9" class="node">
<title>uvm_unit</title>
<path fill="#f4f1e8" stroke="#aeb5aa" stroke-width="1.15" d="M607.84,-148.86C607.84,-148.86 520.16,-148.86 520.16,-148.86 514.16,-148.86 508.16,-142.86 508.16,-136.86 508.16,-136.86 508.16,-124.86 508.16,-124.86 508.16,-118.86 514.16,-112.86 520.16,-112.86 520.16,-112.86 607.84,-112.86 607.84,-112.86 613.84,-112.86 619.84,-118.86 619.84,-124.86 619.84,-124.86 619.84,-136.86 619.84,-136.86 619.84,-142.86 613.84,-148.86 607.84,-148.86"/>
<text xml:space="preserve" text-anchor="middle" x="564" y="-127.71" font-family="Arial" font-size="10.50" fill="#17201a">UVM/HMM source</text>
</g>
<!-- linux_build&#45;&gt;uvm_unit -->
<g id="edge6" class="edge">
<title>linux_build&#45;&gt;uvm_unit</title>
<path fill="none" stroke="#5d675f" stroke-width="1.2" d="M551.53,-194.11C551.53,-194.11 551.53,-157.67 551.53,-157.67"/>
<polygon fill="#5d675f" stroke="#5d675f" stroke-width="1.2" points="553.81,-157.67 551.53,-151.17 549.26,-157.67 553.81,-157.67"/>
</g>
<!-- peer_unit -->
<g id="node10" class="node">
<title>peer_unit</title>
<path fill="#f4f1e8" stroke="#aeb5aa" stroke-width="1.15" d="M761.97,-148.86C761.97,-148.86 662.03,-148.86 662.03,-148.86 656.03,-148.86 650.03,-142.86 650.03,-136.86 650.03,-136.86 650.03,-124.86 650.03,-124.86 650.03,-118.86 656.03,-112.86 662.03,-112.86 662.03,-112.86 761.97,-112.86 761.97,-112.86 767.97,-112.86 773.97,-118.86 773.97,-124.86 773.97,-124.86 773.97,-136.86 773.97,-136.86 773.97,-142.86 767.97,-148.86 761.97,-148.86"/>
<text xml:space="preserve" text-anchor="middle" x="712" y="-127.71" font-family="Arial" font-size="10.50" fill="#17201a">Peer&#45;memory source</text>
</g>
<!-- linux_build&#45;&gt;peer_unit -->
<g id="edge7" class="edge">
<title>linux_build&#45;&gt;peer_unit</title>
<path fill="none" stroke="#5d675f" stroke-width="1.2" d="M595.38,-213C650.64,-213 712,-213 712,-213 712,-213 712,-157.41 712,-157.41"/>
<polygon fill="#5d675f" stroke="#5d675f" stroke-width="1.2" points="714.28,-157.41 712,-150.91 709.73,-157.41 714.28,-157.41"/>
</g>
<!-- drm -->
<g id="node11" class="node">
<title>drm</title>
<path fill="#f4f1e8" stroke="#aeb5aa" stroke-width="1.15" d="M455.47,-67.04C455.47,-67.04 390.53,-67.04 390.53,-67.04 384.53,-67.04 378.53,-61.04 378.53,-55.04 378.53,-55.04 378.53,-38 378.53,-38 378.53,-32 384.53,-26 390.53,-26 390.53,-26 455.47,-26 455.47,-26 461.47,-26 467.47,-32 467.47,-38 467.47,-38 467.47,-55.04 467.47,-55.04 467.47,-61.04 461.47,-67.04 455.47,-67.04"/>
<text xml:space="preserve" text-anchor="middle" x="423" y="-49.67" font-family="Arial" font-size="10.50" fill="#17201a">nvidia&#45;drm.ko</text>
<text xml:space="preserve" text-anchor="middle" x="423" y="-37.07" font-family="Arial" font-size="10.50" fill="#17201a">DRM bridge</text>
</g>
<!-- drm_unit&#45;&gt;drm -->
<g id="edge8" class="edge">
<title>drm_unit&#45;&gt;drm</title>
<path fill="none" stroke="#5d675f" stroke-width="1.2" d="M423,-112.56C423,-112.56 423,-75.77 423,-75.77"/>
<polygon fill="#5d675f" stroke="#5d675f" stroke-width="1.2" points="425.28,-75.77 423,-69.27 420.73,-75.77 425.28,-75.77"/>
</g>
<!-- uvm -->
<g id="node12" class="node">
<title>uvm</title>
<path fill="#f4f1e8" stroke="#aeb5aa" stroke-width="1.15" d="M612.22,-67.04C612.22,-67.04 515.78,-67.04 515.78,-67.04 509.78,-67.04 503.78,-61.04 503.78,-55.04 503.78,-55.04 503.78,-38 503.78,-38 503.78,-32 509.78,-26 515.78,-26 515.78,-26 612.22,-26 612.22,-26 618.22,-26 624.22,-32 624.22,-38 624.22,-38 624.22,-55.04 624.22,-55.04 624.22,-61.04 618.22,-67.04 612.22,-67.04"/>
<text xml:space="preserve" text-anchor="middle" x="564" y="-49.67" font-family="Arial" font-size="10.50" fill="#17201a">nvidia&#45;uvm.ko</text>
<text xml:space="preserve" text-anchor="middle" x="564" y="-37.07" font-family="Arial" font-size="10.50" fill="#17201a">GPU virtual memory</text>
</g>
<!-- uvm_unit&#45;&gt;uvm -->
<g id="edge9" class="edge">
<title>uvm_unit&#45;&gt;uvm</title>
<path fill="none" stroke="#5d675f" stroke-width="1.2" d="M564,-112.56C564,-112.56 564,-75.77 564,-75.77"/>
<polygon fill="#5d675f" stroke="#5d675f" stroke-width="1.2" points="566.28,-75.77 564,-69.27 561.73,-75.77 566.28,-75.77"/>
</g>
<!-- peer -->
<g id="node13" class="node">
<title>peer</title>
<path fill="#f4f1e8" stroke="#aeb5aa" stroke-width="1.15" d="M757.6,-67.04C757.6,-67.04 666.4,-67.04 666.4,-67.04 660.4,-67.04 654.4,-61.04 654.4,-55.04 654.4,-55.04 654.4,-38 654.4,-38 654.4,-32 660.4,-26 666.4,-26 666.4,-26 757.6,-26 757.6,-26 763.6,-26 769.6,-32 769.6,-38 769.6,-38 769.6,-55.04 769.6,-55.04 769.6,-61.04 763.6,-67.04 757.6,-67.04"/>
<text xml:space="preserve" text-anchor="middle" x="712" y="-49.67" font-family="Arial" font-size="10.50" fill="#17201a">nvidia&#45;peermem.ko</text>
<text xml:space="preserve" text-anchor="middle" x="712" y="-37.07" font-family="Arial" font-size="10.50" fill="#17201a">GPUDirect RDMA</text>
</g>
<!-- peer_unit&#45;&gt;peer -->
<g id="edge10" class="edge">
<title>peer_unit&#45;&gt;peer</title>
<path fill="none" stroke="#5d675f" stroke-width="1.2" d="M712,-112.56C712,-112.56 712,-75.77 712,-75.77"/>
<polygon fill="#5d675f" stroke="#5d675f" stroke-width="1.2" points="714.28,-75.77 712,-69.27 709.73,-75.77 714.28,-75.77"/>
</g>
</g>
</svg>
